<svg width="12" height="12" viewBox="0 0 12 12" fill="none" xmlns="http://www.w3.org/2000/svg">
<path fill-rule="evenodd" clip-rule="evenodd" d="M6 4.125C4.68832 4.125 3.625 5.18832 3.625 6.5C3.625 7.81168 4.68832 8.875 6 8.875C7.31168 8.875 8.375 7.81168 8.375 6.5C8.375 5.18832 7.31168 4.125 6 4.125ZM4.375 6.5C4.375 5.60254 5.10254 4.875 6 4.875C6.89746 4.875 7.625 5.60254 7.625 6.5C7.625 7.39746 6.89746 8.125 6 8.125C5.10254 8.125 4.375 7.39746 4.375 6.5Z" fill="white"/>
<path fill-rule="evenodd" clip-rule="evenodd" d="M7.73176 1.375H4.26824L3.26824 3.375H1.125V10.625H10.875V3.375H8.73176L7.73176 1.375ZM3.73176 4.125L4.73176 2.125H7.26824L8.26824 4.125H10.125V9.875H1.875V4.125H3.73176Z" fill="white"/>
</svg>
