<svg width="18" height="15" viewBox="0 0 18 15" fill="none" xmlns="http://www.w3.org/2000/svg">
<path fill-rule="evenodd" clip-rule="evenodd" d="M2.93759 2.48594C2.41089 3.17361 2.125 4.12925 2.125 5.13889C2.125 6.17054 2.53041 7.20785 3.19312 8.20952C3.85467 9.20943 4.74822 10.1365 5.66122 10.9342C6.57183 11.7298 7.48541 12.3826 8.17281 12.837C8.51589 13.0639 8.80112 13.2403 8.99945 13.3593C8.99963 13.3595 8.99982 13.3596 9 13.3597C9.00019 13.3596 9.00037 13.3595 9.00055 13.3593C9.19889 13.2403 9.48411 13.0639 9.82719 12.837C10.5146 12.3826 11.4282 11.7298 12.3388 10.9342C13.2518 10.1365 14.1453 9.20943 14.8069 8.20952C15.4696 7.20785 15.875 6.17054 15.875 5.13889C15.875 4.12813 15.5911 3.17259 15.0659 2.48544C14.5543 1.81602 13.7973 1.375 12.75 1.375C11.6855 1.375 10.8847 1.81592 10.3376 2.2718C10.0637 2.50006 9.85817 2.72856 9.72242 2.89825C9.65481 2.98275 9.60532 3.05167 9.57405 3.09727C9.55844 3.12004 9.54744 3.13689 9.54107 3.14684C9.53788 3.15182 9.53586 3.15506 9.53501 3.15645C9.53458 3.15714 9.53444 3.15737 9.53459 3.15711L9.00222 4.04441L8.46658 3.15904C8.46672 3.15928 8.46658 3.15904 8.46614 3.15833C8.46564 3.15754 8.46478 3.15616 8.46355 3.15423C8.46258 3.15271 8.46139 3.15084 8.45997 3.14864C8.45352 3.13863 8.4424 3.12172 8.42664 3.09889C8.39508 3.05317 8.34518 2.98413 8.27711 2.89948C8.14043 2.72952 7.93376 2.50073 7.65897 2.27221C7.10982 1.81554 6.30887 1.375 5.25 1.375C4.20849 1.375 3.45107 1.81554 2.93759 2.48594ZM9 14.0833L9.30322 14.6298L9 14.7981L8.69678 14.6298L9 14.0833ZM1.94522 1.72587C2.68435 0.760853 3.80193 0.125 5.25 0.125C6.68071 0.125 7.75476 0.726125 8.45822 1.31112C8.67013 1.48734 8.85024 1.66346 8.99876 1.82391C9.14669 1.66354 9.32613 1.48758 9.53738 1.31153C10.2403 0.725751 11.3145 0.125 12.75 0.125C14.2027 0.125 15.3207 0.760371 16.0591 1.72636C16.7839 2.67463 17.125 3.91354 17.125 5.13889C17.125 6.49884 16.5929 7.7754 15.8494 8.89924C15.1047 10.0248 14.1232 11.035 13.1612 11.8755C12.1968 12.7181 11.2354 13.4045 10.5166 13.8798C10.1565 14.1178 9.8558 14.3039 9.64398 14.431C9.53803 14.4946 9.45421 14.5436 9.39622 14.577C9.36721 14.5937 9.34466 14.6065 9.32901 14.6154C9.32118 14.6198 9.31508 14.6232 9.31077 14.6256C9.30861 14.6268 9.3069 14.6278 9.30564 14.6285L9.30357 14.6297C9.30338 14.6298 9.30322 14.6298 9 14.0833C8.69678 14.6298 8.69662 14.6298 8.69643 14.6297L8.69436 14.6285C8.6931 14.6278 8.69139 14.6268 8.68923 14.6256C8.68492 14.6232 8.67882 14.6198 8.67099 14.6154C8.65534 14.6065 8.63279 14.5937 8.60378 14.577C8.54579 14.5436 8.46197 14.4946 8.35602 14.431C8.1442 14.3039 7.84348 14.1178 7.48344 13.8798C6.76459 13.4045 5.80317 12.7181 4.83878 11.8755C3.87678 11.035 2.89533 10.0248 2.15063 8.89924C1.40709 7.7754 0.875 6.49884 0.875 5.13889C0.875 3.91242 1.21932 2.67362 1.94522 1.72587Z" fill="#147677"/>
</svg>
