<svg width="16" height="16" viewBox="0 0 16 16" fill="none" xmlns="http://www.w3.org/2000/svg">
<path fill-rule="evenodd" clip-rule="evenodd" d="M8.00006 5.8334C6.80345 5.8334 5.8334 6.80345 5.8334 8.00006C5.8334 9.19668 6.80345 10.1667 8.00006 10.1667C9.19668 10.1667 10.1667 9.19668 10.1667 8.00006C10.1667 6.80345 9.19668 5.8334 8.00006 5.8334ZM6.8334 8.00006C6.8334 7.35573 7.35573 6.8334 8.00006 6.8334C8.6444 6.8334 9.16673 7.35573 9.16673 8.00006C9.16673 8.6444 8.6444 9.16673 8.00006 9.16673C7.35573 9.16673 6.8334 8.6444 6.8334 8.00006Z" fill="black"/>
<path fill-rule="evenodd" clip-rule="evenodd" d="M9.96454 3.25743L8.00008 1.29297L6.03561 3.25743H3.25743V6.03561L1.29297 8.00008L3.25743 9.96454V12.7427H6.03561L8.00008 14.7072L9.96454 12.7427H12.7427V9.96455L14.7072 8.00008L12.7427 6.03561V3.25743H9.96454ZM6.44983 4.25743L8.00008 2.70718L9.55033 4.25743H11.7427V6.44982L13.293 8.00008L11.7427 9.55033V11.7427H9.55033L8.00008 13.293L6.44982 11.7427H4.25743V9.55033L2.70718 8.00008L4.25743 6.44983V4.25743H6.44983Z" fill="black"/>
</svg>
