<svg width="32" height="32" viewBox="0 0 32 32" fill="none" xmlns="http://www.w3.org/2000/svg">
<path d="M25 29.3334C27.3932 29.3334 29.3333 27.3933 29.3333 25.0001C29.3333 22.6068 27.3932 20.6667 25 20.6667C22.6067 20.6667 20.6666 22.6068 20.6666 25.0001C20.6666 27.3933 22.6067 29.3334 25 29.3334Z" fill="#147677"/>
<path d="M25.3334 10.6667C27.5425 10.6667 29.3334 8.87589 29.3334 6.66675C29.3334 4.45761 27.5425 2.66675 25.3334 2.66675C23.1242 2.66675 21.3334 4.45761 21.3334 6.66675C21.3334 8.87589 23.1242 10.6667 25.3334 10.6667Z" fill="#147677"/>
<path d="M6.66663 10.6667C8.87577 10.6667 10.6666 8.87589 10.6666 6.66675C10.6666 4.45761 8.87577 2.66675 6.66663 2.66675C4.45749 2.66675 2.66663 4.45761 2.66663 6.66675C2.66663 8.87589 4.45749 10.6667 6.66663 10.6667Z" fill="#147677"/>
<path opacity="0.4" d="M6.44004 10.6934C7.73337 14.4 11.2267 16.8934 15.16 16.8934C15.1734 16.8934 15.1867 16.8934 15.2 16.8934L19.9067 16.88C21.9334 16.8534 23.7467 18.2267 24.2934 20.2V22.6667C24.2934 23.2267 24.7467 23.68 25.3067 23.68C25.8667 23.68 26.32 23.2267 26.32 22.6667V7.70669C26.32 7.14669 25.8667 6.69336 25.3067 6.69336C24.7467 6.69336 24.2934 7.14669 24.2934 7.70669V16.5333C23.12 15.4933 21.5867 14.8534 19.92 14.8534C19.9067 14.8534 19.9067 14.8534 19.8934 14.8534L15.1867 14.8667C15.1734 14.8667 15.1734 14.8667 15.16 14.8667C12.1067 14.8667 9.37337 12.9334 8.37337 10.04C8.2267 9.61335 7.8267 9.36003 7.41337 9.36003C7.3067 9.36003 7.1867 9.37335 7.08004 9.41335C6.53337 9.57335 6.25337 10.16 6.44004 10.6934Z" fill="#147677"/>
</svg>
