<svg width="15" height="16" viewBox="0 0 15 16" fill="none" xmlns="http://www.w3.org/2000/svg">
<mask id="mask0_271_2361" style="mask-type:alpha" maskUnits="userSpaceOnUse" x="0" y="0" width="15" height="17">
<path d="M12.9875 16.0001H1.14335C0.512163 16.0001 0.000488281 15.4884 0.000488281 14.8573V1.14298C0.000488281 0.511797 0.512163 0.00012207 1.14335 0.00012207H8.83166L14.1304 5.29882V14.8573C14.1304 15.4884 13.6187 16.0001 12.9875 16.0001Z" fill="url(#paint0_linear_271_2361)"/>
</mask>
<g mask="url(#mask0_271_2361)">
<path d="M12.9875 16.0001H1.14335C0.512163 16.0001 0.000488281 15.4884 0.000488281 14.8573V1.14298C0.000488281 0.511797 0.512163 0.00012207 1.14335 0.00012207H8.83166L14.1304 5.29882V14.8573C14.1304 15.4884 13.6187 16.0001 12.9875 16.0001Z" fill="url(#paint1_linear_271_2361)"/>
<path opacity="0.12" fill-rule="evenodd" clip-rule="evenodd" d="M10.3379 7.22091H3.79248V6.59753H10.3379V7.22091ZM10.3379 8.77934H3.79248V8.15597H10.3379V8.77934ZM3.79248 10.3378H10.3379V9.7144H3.79248V10.3378ZM10.3379 11.8963H3.79248V11.2729H10.3379V11.8963ZM3.79248 13.4546H10.3379V12.8313H3.79248V13.4546Z" fill="white"/>
<mask id="path-4-outside-1_271_2361" maskUnits="userSpaceOnUse" x="2.6499" y="8.53259" width="9" height="4" fill="black">
<rect fill="white" x="2.6499" y="8.53259" width="9" height="4"/>
<path d="M3.23266 11.5531C3.18067 11.5531 3.1369 11.5353 3.10133 11.4998C3.06576 11.4642 3.04798 11.4204 3.04798 11.3684V8.85685C3.04798 8.80487 3.06576 8.76109 3.10133 8.72553C3.1369 8.68722 3.18067 8.66807 3.23266 8.66807H4.16834C4.42826 8.66807 4.64029 8.71185 4.80445 8.7994C4.9686 8.88695 5.08625 8.99912 5.15738 9.13592C5.22852 9.27271 5.26408 9.42045 5.26408 9.57914C5.26408 9.73782 5.22852 9.88556 5.15738 10.0224C5.08625 10.1592 4.9686 10.2713 4.80445 10.3589C4.64029 10.4464 4.42826 10.4902 4.16834 10.4902H3.42143V11.3684C3.42143 11.4204 3.40228 11.4642 3.36398 11.4998C3.32841 11.5353 3.28464 11.5531 3.23266 11.5531ZM4.13141 10.1373C4.41047 10.1373 4.60609 10.0839 4.71827 9.97722C4.83318 9.87051 4.89063 9.73782 4.89063 9.57914C4.89063 9.42045 4.83318 9.28776 4.71827 9.18106C4.60609 9.07436 4.41047 9.02101 4.13141 9.02101H3.42143V10.1373H4.13141ZM6.27723 11.5326C6.22525 11.5326 6.18148 11.5148 6.14591 11.4792C6.11034 11.4437 6.09256 11.3999 6.09256 11.3479V8.85685C6.09256 8.80487 6.11034 8.76109 6.14591 8.72553C6.18148 8.68722 6.22525 8.66807 6.27723 8.66807H7.10212C7.41401 8.66807 7.67803 8.73784 7.89417 8.87737C8.11304 9.01417 8.2772 9.192 8.38664 9.41088C8.49607 9.62975 8.55079 9.85957 8.55079 10.1003C8.55079 10.3411 8.49607 10.5709 8.38664 10.7898C8.2772 11.0087 8.11304 11.1879 7.89417 11.3274C7.67803 11.4642 7.41401 11.5326 7.10212 11.5326H6.27723ZM7.05697 11.1838C7.28132 11.1838 7.47831 11.1386 7.64793 11.0483C7.81756 10.9553 7.94889 10.8281 8.04191 10.6667C8.13493 10.5025 8.18144 10.3137 8.18144 10.1003C8.18144 9.88693 8.13493 9.69952 8.04191 9.5381C7.94889 9.37394 7.81756 9.24672 7.64793 9.15644C7.47831 9.06342 7.28132 9.0169 7.05697 9.0169H6.46601V11.1838H7.05697ZM9.64644 11.5531C9.59445 11.5531 9.55068 11.5353 9.51511 11.4998C9.47954 11.4642 9.46176 11.4204 9.46176 11.3684V8.85685C9.46176 8.80487 9.47954 8.76109 9.51511 8.72553C9.55068 8.68722 9.59445 8.66807 9.64644 8.66807H11.2429C11.2921 8.66807 11.3331 8.68586 11.366 8.72142C11.4015 8.75425 11.4193 8.79529 11.4193 8.84454C11.4193 8.89379 11.4015 8.93483 11.366 8.96766C11.3331 9.00049 11.2921 9.0169 11.2429 9.0169H9.83522V9.92387H11.0992C11.1485 9.92387 11.1895 9.94165 11.2223 9.97722C11.2579 10.01 11.2757 10.0511 11.2757 10.1003C11.2757 10.1496 11.2579 10.1906 11.2223 10.2234C11.1895 10.2563 11.1485 10.2727 11.0992 10.2727H9.83522V11.3684C9.83522 11.4204 9.81606 11.4642 9.77776 11.4998C9.74219 11.5353 9.69842 11.5531 9.64644 11.5531Z"/>
</mask>
<path d="M3.23266 11.5531C3.18067 11.5531 3.1369 11.5353 3.10133 11.4998C3.06576 11.4642 3.04798 11.4204 3.04798 11.3684V8.85685C3.04798 8.80487 3.06576 8.76109 3.10133 8.72553C3.1369 8.68722 3.18067 8.66807 3.23266 8.66807H4.16834C4.42826 8.66807 4.64029 8.71185 4.80445 8.7994C4.9686 8.88695 5.08625 8.99912 5.15738 9.13592C5.22852 9.27271 5.26408 9.42045 5.26408 9.57914C5.26408 9.73782 5.22852 9.88556 5.15738 10.0224C5.08625 10.1592 4.9686 10.2713 4.80445 10.3589C4.64029 10.4464 4.42826 10.4902 4.16834 10.4902H3.42143V11.3684C3.42143 11.4204 3.40228 11.4642 3.36398 11.4998C3.32841 11.5353 3.28464 11.5531 3.23266 11.5531ZM4.13141 10.1373C4.41047 10.1373 4.60609 10.0839 4.71827 9.97722C4.83318 9.87051 4.89063 9.73782 4.89063 9.57914C4.89063 9.42045 4.83318 9.28776 4.71827 9.18106C4.60609 9.07436 4.41047 9.02101 4.13141 9.02101H3.42143V10.1373H4.13141ZM6.27723 11.5326C6.22525 11.5326 6.18148 11.5148 6.14591 11.4792C6.11034 11.4437 6.09256 11.3999 6.09256 11.3479V8.85685C6.09256 8.80487 6.11034 8.76109 6.14591 8.72553C6.18148 8.68722 6.22525 8.66807 6.27723 8.66807H7.10212C7.41401 8.66807 7.67803 8.73784 7.89417 8.87737C8.11304 9.01417 8.2772 9.192 8.38664 9.41088C8.49607 9.62975 8.55079 9.85957 8.55079 10.1003C8.55079 10.3411 8.49607 10.5709 8.38664 10.7898C8.2772 11.0087 8.11304 11.1879 7.89417 11.3274C7.67803 11.4642 7.41401 11.5326 7.10212 11.5326H6.27723ZM7.05697 11.1838C7.28132 11.1838 7.47831 11.1386 7.64793 11.0483C7.81756 10.9553 7.94889 10.8281 8.04191 10.6667C8.13493 10.5025 8.18144 10.3137 8.18144 10.1003C8.18144 9.88693 8.13493 9.69952 8.04191 9.5381C7.94889 9.37394 7.81756 9.24672 7.64793 9.15644C7.47831 9.06342 7.28132 9.0169 7.05697 9.0169H6.46601V11.1838H7.05697ZM9.64644 11.5531C9.59445 11.5531 9.55068 11.5353 9.51511 11.4998C9.47954 11.4642 9.46176 11.4204 9.46176 11.3684V8.85685C9.46176 8.80487 9.47954 8.76109 9.51511 8.72553C9.55068 8.68722 9.59445 8.66807 9.64644 8.66807H11.2429C11.2921 8.66807 11.3331 8.68586 11.366 8.72142C11.4015 8.75425 11.4193 8.79529 11.4193 8.84454C11.4193 8.89379 11.4015 8.93483 11.366 8.96766C11.3331 9.00049 11.2921 9.0169 11.2429 9.0169H9.83522V9.92387H11.0992C11.1485 9.92387 11.1895 9.94165 11.2223 9.97722C11.2579 10.01 11.2757 10.0511 11.2757 10.1003C11.2757 10.1496 11.2579 10.1906 11.2223 10.2234C11.1895 10.2563 11.1485 10.2727 11.0992 10.2727H9.83522V11.3684C9.83522 11.4204 9.81606 11.4642 9.77776 11.4998C9.74219 11.5353 9.69842 11.5531 9.64644 11.5531Z" fill="white"/>
<path d="M3.10133 11.4998L3.1748 11.4263L3.10133 11.4998ZM3.10133 8.72553L3.17485 8.79904L3.17747 8.79622L3.10133 8.72553ZM4.80445 8.7994L4.85334 8.70772L4.80445 8.7994ZM5.15738 9.13592L5.0652 9.18385V9.18385L5.15738 9.13592ZM5.15738 10.0224L5.0652 9.97443L5.0652 9.97443L5.15738 10.0224ZM4.80445 10.3589L4.85334 10.4506L4.80445 10.3589ZM3.42143 10.4902V10.3863H3.31754V10.4902H3.42143ZM3.36398 11.4998L3.29324 11.4236L3.29051 11.4263L3.36398 11.4998ZM4.71827 9.97722L4.64756 9.90108L4.64666 9.90194L4.71827 9.97722ZM4.71827 9.18106L4.64665 9.25634L4.64757 9.25719L4.71827 9.18106ZM3.42143 9.02101V8.91711H3.31754V9.02101H3.42143ZM3.42143 10.1373H3.31754V10.2412H3.42143V10.1373ZM3.23266 11.4492C3.2072 11.4492 3.19016 11.4417 3.1748 11.4263L3.02787 11.5732C3.08363 11.629 3.15415 11.657 3.23266 11.657V11.4492ZM3.1748 11.4263C3.15943 11.4109 3.15188 11.3939 3.15188 11.3684H2.94408C2.94408 11.4469 2.9721 11.5175 3.02787 11.5732L3.1748 11.4263ZM3.15188 11.3684V8.85685H2.94408V11.3684H3.15188ZM3.15188 8.85685C3.15188 8.83139 3.15943 8.81436 3.1748 8.79899L3.02787 8.65206C2.9721 8.70783 2.94408 8.77835 2.94408 8.85685H3.15188ZM3.17747 8.79622C3.1935 8.77896 3.20974 8.77197 3.23266 8.77197V8.56418C3.1516 8.56418 3.0803 8.59549 3.0252 8.65483L3.17747 8.79622ZM3.23266 8.77197H4.16834V8.56418H3.23266V8.77197ZM4.16834 8.77197C4.4176 8.77197 4.61123 8.8141 4.75556 8.89107L4.85334 8.70772C4.66936 8.6096 4.43891 8.56418 4.16834 8.56418V8.77197ZM4.75556 8.89107C4.90508 8.97082 5.0056 9.06923 5.0652 9.18385L5.24956 9.08798C5.1669 8.92901 5.03212 8.80308 4.85334 8.70772L4.75556 8.89107ZM5.0652 9.18385C5.12841 9.3054 5.16019 9.43664 5.16019 9.57914H5.36798C5.36798 9.40427 5.32862 9.24003 5.24956 9.08798L5.0652 9.18385ZM5.16019 9.57914C5.16019 9.72164 5.12841 9.85288 5.0652 9.97443L5.24956 10.0703C5.32862 9.91825 5.36798 9.754 5.36798 9.57914H5.16019ZM5.0652 9.97443C5.0056 10.089 4.90508 10.1875 4.75556 10.2672L4.85334 10.4506C5.03212 10.3552 5.1669 10.2293 5.24956 10.0703L5.0652 9.97443ZM4.75556 10.2672C4.61123 10.3442 4.4176 10.3863 4.16834 10.3863V10.5941C4.43891 10.5941 4.66936 10.5487 4.85334 10.4506L4.75556 10.2672ZM4.16834 10.3863H3.42143V10.5941H4.16834V10.3863ZM3.31754 10.4902V11.3684H3.52533V10.4902H3.31754ZM3.31754 11.3684C3.31754 11.3913 3.31055 11.4076 3.29328 11.4236L3.43468 11.5759C3.49402 11.5208 3.52533 11.4495 3.52533 11.3684H3.31754ZM3.29051 11.4263C3.27515 11.4417 3.25811 11.4492 3.23266 11.4492V11.657C3.31116 11.657 3.38168 11.629 3.43745 11.5732L3.29051 11.4263ZM4.13141 10.2412C4.41775 10.2412 4.64785 10.1876 4.78987 10.0525L4.64666 9.90194C4.56434 9.98024 4.4032 10.0334 4.13141 10.0334V10.2412ZM4.78896 10.0534C4.92533 9.92673 4.99453 9.76632 4.99453 9.57914H4.78673C4.78673 9.70932 4.74102 9.8143 4.64757 9.90108L4.78896 10.0534ZM4.99453 9.57914C4.99453 9.39196 4.92533 9.23155 4.78896 9.10493L4.64757 9.25719C4.74102 9.34397 4.78673 9.44895 4.78673 9.57914H4.99453ZM4.78987 9.10578C4.64785 8.97069 4.41775 8.91711 4.13141 8.91711V9.1249C4.4032 9.1249 4.56434 9.17803 4.64666 9.25634L4.78987 9.10578ZM4.13141 8.91711H3.42143V9.1249H4.13141V8.91711ZM3.31754 9.02101V10.1373H3.52533V9.02101H3.31754ZM3.42143 10.2412H4.13141V10.0334H3.42143V10.2412ZM6.14591 11.4792L6.21937 11.4058L6.14591 11.4792ZM6.14591 8.72553L6.21942 8.79904L6.22204 8.79622L6.14591 8.72553ZM7.89417 8.87737L7.83781 8.96467L7.8391 8.96548L7.89417 8.87737ZM8.38664 9.41088L8.29371 9.45734L8.38664 9.41088ZM8.38664 10.7898L8.29371 10.7433L8.38664 10.7898ZM7.89417 11.3274L7.94973 11.4152L7.95002 11.415L7.89417 11.3274ZM7.64793 11.0483L7.69675 11.1401L7.69789 11.1394L7.64793 11.0483ZM8.04191 10.6667L8.13193 10.7185L8.1323 10.7179L8.04191 10.6667ZM8.04191 9.5381L7.95151 9.58932L7.95189 9.58997L8.04191 9.5381ZM7.64793 9.15644L7.59797 9.24754L7.59912 9.24815L7.64793 9.15644ZM6.46601 9.0169V8.91301H6.36212V9.0169H6.46601ZM6.46601 11.1838H6.36212V11.2877H6.46601V11.1838ZM6.27723 11.4287C6.25178 11.4287 6.23474 11.4211 6.21937 11.4058L6.07244 11.5527C6.12821 11.6085 6.19873 11.6365 6.27723 11.6365V11.4287ZM6.21937 11.4058C6.20401 11.3904 6.19645 11.3734 6.19645 11.3479H5.98866C5.98866 11.4264 6.01667 11.4969 6.07244 11.5527L6.21937 11.4058ZM6.19645 11.3479V8.85685H5.98866V11.3479H6.19645ZM6.19645 8.85685C6.19645 8.83139 6.20401 8.81436 6.21937 8.79899L6.07244 8.65206C6.01667 8.70783 5.98866 8.77835 5.98866 8.85685H6.19645ZM6.22204 8.79622C6.23808 8.77896 6.25432 8.77197 6.27723 8.77197V8.56418C6.19618 8.56418 6.12488 8.59549 6.06977 8.65483L6.22204 8.79622ZM6.27723 8.77197H7.10212V8.56418H6.27723V8.77197ZM7.10212 8.77197C7.3983 8.77197 7.64174 8.83808 7.83782 8.96466L7.95052 8.79008C7.71432 8.6376 7.42972 8.56418 7.10212 8.56418V8.77197ZM7.8391 8.96548C8.04269 9.09272 8.1933 9.25652 8.29371 9.45734L8.47956 9.36441C8.3611 9.12749 8.18339 8.93562 7.94923 8.78927L7.8391 8.96548ZM8.29371 9.45734C8.39606 9.66204 8.4469 9.87597 8.4469 10.1003H8.65469C8.65469 9.84317 8.59609 9.59747 8.47956 9.36441L8.29371 9.45734ZM8.4469 10.1003C8.4469 10.3247 8.39606 10.5386 8.29371 10.7433L8.47956 10.8363C8.59609 10.6032 8.65469 10.3575 8.65469 10.1003H8.4469ZM8.29371 10.7433C8.1932 10.9443 8.04234 11.1097 7.83832 11.2398L7.95002 11.415C8.18375 11.266 8.3612 11.073 8.47956 10.8363L8.29371 10.7433ZM7.83861 11.2396C7.64241 11.3638 7.39867 11.4287 7.10212 11.4287V11.6365C7.42935 11.6365 7.71365 11.5646 7.94973 11.4152L7.83861 11.2396ZM7.10212 11.4287H6.27723V11.6365H7.10212V11.4287ZM7.05697 11.2877C7.29549 11.2877 7.50976 11.2396 7.69675 11.14L7.59912 10.9566C7.44686 11.0377 7.26716 11.0799 7.05697 11.0799V11.2877ZM7.69789 11.1394C7.88354 11.0376 8.02902 10.8971 8.13193 10.7185L7.95189 10.6148C7.86875 10.7591 7.75158 10.873 7.59798 10.9572L7.69789 11.1394ZM8.1323 10.7179C8.23528 10.5362 8.28534 10.3293 8.28534 10.1003H8.07755C8.07755 10.2982 8.03458 10.4689 7.95152 10.6154L8.1323 10.7179ZM8.28534 10.1003C8.28534 9.87141 8.2353 9.6656 8.13193 9.48622L7.95189 9.58997C8.03457 9.73344 8.07755 9.90245 8.07755 10.1003H8.28534ZM8.1323 9.48688C8.02936 9.30522 7.88346 9.1641 7.69675 9.06472L7.59912 9.24815C7.75166 9.32934 7.86841 9.44267 7.95152 9.58932L8.1323 9.48688ZM7.69789 9.06534C7.51067 8.96267 7.29598 8.91301 7.05697 8.91301V9.1208C7.26666 9.1208 7.44595 9.16416 7.59798 9.24753L7.69789 9.06534ZM7.05697 8.91301H6.46601V9.1208H7.05697V8.91301ZM6.36212 9.0169V11.1838H6.56991V9.0169H6.36212ZM6.46601 11.2877H7.05697V11.0799H6.46601V11.2877ZM9.51511 11.4998L9.58858 11.4263L9.51511 11.4998ZM9.51511 8.72553L9.58863 8.79904L9.59125 8.79622L9.51511 8.72553ZM11.366 8.72142L11.2894 8.79212L11.2955 8.79777L11.366 8.72142ZM11.366 8.96766L11.2954 8.89125L11.2925 8.89419L11.366 8.96766ZM9.83522 9.0169V8.91301H9.73132V9.0169H9.83522ZM9.83522 9.92387H9.73132V10.0278H9.83522V9.92387ZM11.2223 9.97722L11.1457 10.0479L11.1519 10.0536L11.2223 9.97722ZM11.2223 10.2234L11.1518 10.147L11.1489 10.15L11.2223 10.2234ZM9.83522 10.2727V10.1688H9.73132V10.2727H9.83522ZM9.77776 11.4998L9.70702 11.4236L9.7043 11.4263L9.77776 11.4998ZM9.64644 11.4492C9.62098 11.4492 9.60394 11.4417 9.58858 11.4263L9.44165 11.5732C9.49741 11.629 9.56793 11.657 9.64644 11.657V11.4492ZM9.58858 11.4263C9.57321 11.4109 9.56566 11.3939 9.56566 11.3684H9.35786C9.35786 11.4469 9.38588 11.5175 9.44165 11.5732L9.58858 11.4263ZM9.56566 11.3684V8.85685H9.35786V11.3684H9.56566ZM9.56566 8.85685C9.56566 8.83139 9.57321 8.81436 9.58858 8.79899L9.44165 8.65206C9.38588 8.70783 9.35786 8.77835 9.35786 8.85685H9.56566ZM9.59125 8.79622C9.60728 8.77896 9.62353 8.77197 9.64644 8.77197V8.56418C9.56538 8.56418 9.49408 8.59549 9.43898 8.65483L9.59125 8.79622ZM9.64644 8.77197H11.2429V8.56418H9.64644V8.77197ZM11.2429 8.77197C11.2637 8.77197 11.2768 8.77805 11.2896 8.79189L11.4423 8.65095C11.3894 8.59366 11.3205 8.56418 11.2429 8.56418V8.77197ZM11.2955 8.79777C11.3093 8.81054 11.3154 8.82372 11.3154 8.84454H11.5232C11.5232 8.76687 11.4937 8.69797 11.4364 8.64508L11.2955 8.79777ZM11.3154 8.84454C11.3154 8.86536 11.3093 8.87854 11.2955 8.89131L11.4364 9.044C11.4937 8.99112 11.5232 8.92221 11.5232 8.84454H11.3154ZM11.2925 8.89419C11.2804 8.90627 11.2664 8.91301 11.2429 8.91301V9.1208C11.3178 9.1208 11.3858 9.09471 11.4394 9.04112L11.2925 8.89419ZM11.2429 8.91301H9.83522V9.1208H11.2429V8.91301ZM9.73132 9.0169V9.92387H9.93911V9.0169H9.73132ZM9.83522 10.0278H11.0992V9.81997H9.83522V10.0278ZM11.0992 10.0278C11.12 10.0278 11.1332 10.0338 11.146 10.0477L11.2987 9.90675C11.2458 9.84945 11.1769 9.81997 11.0992 9.81997V10.0278ZM11.1519 10.0536C11.1657 10.0663 11.1718 10.0795 11.1718 10.1003H11.3796C11.3796 10.0227 11.3501 9.95376 11.2928 9.90087L11.1519 10.0536ZM11.1718 10.1003C11.1718 10.1212 11.1657 10.1343 11.1519 10.1471L11.2928 10.2998C11.3501 10.2469 11.3796 10.178 11.3796 10.1003H11.1718ZM11.1489 10.15C11.1368 10.1621 11.1228 10.1688 11.0992 10.1688V10.3766C11.1742 10.3766 11.2422 10.3505 11.2958 10.2969L11.1489 10.15ZM11.0992 10.1688H9.83522V10.3766H11.0992V10.1688ZM9.73132 10.2727V11.3684H9.93911V10.2727H9.73132ZM9.73132 11.3684C9.73132 11.3913 9.72433 11.4076 9.70706 11.4236L9.84846 11.5759C9.9078 11.5208 9.93911 11.4495 9.93911 11.3684H9.73132ZM9.7043 11.4263C9.68893 11.4417 9.67189 11.4492 9.64644 11.4492V11.657C9.72494 11.657 9.79546 11.629 9.85123 11.5732L9.7043 11.4263Z" fill="white" mask="url(#path-4-outside-1_271_2361)"/>
<mask id="mask1_271_2361" style="mask-type:alpha" maskUnits="userSpaceOnUse" x="0" y="0" width="15" height="17">
<path d="M12.9875 16.0001H1.14335C0.512163 16.0001 0.000488281 15.4884 0.000488281 14.8573V1.14298C0.000488281 0.511797 0.512163 0.00012207 1.14335 0.00012207H8.83166L14.1304 5.29882V14.8573C14.1304 15.4884 13.6187 16.0001 12.9875 16.0001Z" fill="url(#paint2_linear_271_2361)"/>
</mask>
<g mask="url(#mask1_271_2361)">
<ellipse opacity="0.08" cx="-1.42818" cy="-0.337611" rx="11.6104" ry="11.1429" fill="url(#paint3_linear_271_2361)"/>
<ellipse opacity="0.08" cx="-1.42835" cy="-0.337572" rx="7.2987" ry="6.98701" fill="url(#paint4_linear_271_2361)"/>
</g>
<g filter="url(#filter0_d_271_2361)">
<path d="M14.1302 5.29882H9.9744C9.34322 5.29882 8.83154 4.78715 8.83154 4.15597V0.00012207L14.1302 5.29882Z" fill="url(#paint5_linear_271_2361)"/>
</g>
</g>
<defs>
<filter id="filter0_d_271_2361" x="7.63674" y="-1.24663" width="7.89623" height="7.89611" filterUnits="userSpaceOnUse" color-interpolation-filters="sRGB">
<feFlood flood-opacity="0" result="BackgroundImageFix"/>
<feColorMatrix in="SourceAlpha" type="matrix" values="0 0 0 0 0 0 0 0 0 0 0 0 0 0 0 0 0 0 127 0" result="hardAlpha"/>
<feOffset dx="0.103896" dy="0.0519481"/>
<feGaussianBlur stdDeviation="0.649351"/>
<feColorMatrix type="matrix" values="0 0 0 0 0 0 0 0 0 0 0 0 0 0 0 0 0 0 0.33 0"/>
<feBlend mode="normal" in2="BackgroundImageFix" result="effect1_dropShadow_271_2361"/>
<feBlend mode="normal" in="SourceGraphic" in2="effect1_dropShadow_271_2361" result="shape"/>
</filter>
<linearGradient id="paint0_linear_271_2361" x1="7.06542" y1="0.00012207" x2="7.06542" y2="16.0001" gradientUnits="userSpaceOnUse">
<stop stop-color="#FF7979"/>
<stop offset="1" stop-color="#E85555"/>
</linearGradient>
<linearGradient id="paint1_linear_271_2361" x1="7.06542" y1="0.00012207" x2="7.06542" y2="16.0001" gradientUnits="userSpaceOnUse">
<stop stop-color="#FF7981"/>
<stop offset="1" stop-color="#E85567"/>
</linearGradient>
<linearGradient id="paint2_linear_271_2361" x1="7.06542" y1="0.00012207" x2="7.06542" y2="16.0001" gradientUnits="userSpaceOnUse">
<stop stop-color="#FF7981"/>
<stop offset="1" stop-color="#E85567"/>
</linearGradient>
<linearGradient id="paint3_linear_271_2361" x1="-0.585186" y1="0.0453047" x2="2.93581" y2="9.39007" gradientUnits="userSpaceOnUse">
<stop stop-color="white" stop-opacity="0"/>
<stop offset="1" stop-color="white"/>
</linearGradient>
<linearGradient id="paint4_linear_271_2361" x1="-0.898411" y1="-0.0974686" x2="1.30518" y2="5.76576" gradientUnits="userSpaceOnUse">
<stop stop-color="white" stop-opacity="0"/>
<stop offset="1" stop-color="white"/>
</linearGradient>
<linearGradient id="paint5_linear_271_2361" x1="11.4809" y1="0.00012207" x2="11.4809" y2="5.29882" gradientUnits="userSpaceOnUse">
<stop stop-color="#D03954"/>
<stop offset="1" stop-color="#C02A3C"/>
</linearGradient>
</defs>
</svg>
