<svg width="14" height="18" viewBox="0 0 14 18" fill="none" xmlns="http://www.w3.org/2000/svg">
<path fill-rule="evenodd" clip-rule="evenodd" d="M6.99996 0.875C5.04395 0.875 3.45829 2.46066 3.45829 4.41667C3.45829 6.37268 5.04395 7.95833 6.99996 7.95833C8.95597 7.95833 10.5416 6.37268 10.5416 4.41667C10.5416 2.46066 8.95597 0.875 6.99996 0.875ZM4.70829 4.41667C4.70829 3.15101 5.73431 2.125 6.99996 2.125C8.26561 2.125 9.29163 3.15101 9.29163 4.41667C9.29163 5.68232 8.26561 6.70833 6.99996 6.70833C5.73431 6.70833 4.70829 5.68232 4.70829 4.41667Z" fill="#147677"/>
<path fill-rule="evenodd" clip-rule="evenodd" d="M6.99996 9.625C3.43312 9.625 0.541626 12.5165 0.541626 16.0833V17.125H13.4583V16.0833C13.4583 12.5165 10.5668 9.625 6.99996 9.625ZM6.99996 10.875C9.80667 10.875 12.0948 13.0951 12.2042 15.875H1.79572C1.90507 13.0951 4.19325 10.875 6.99996 10.875Z" fill="#147677"/>
</svg>
