<svg width="33" height="32" viewBox="0 0 33 32" fill="none" xmlns="http://www.w3.org/2000/svg">
<path opacity="0.4" d="M16.75 2.66675C13.2566 2.66675 10.4166 5.50675 10.4166 9.00008C10.4166 12.4267 13.0966 15.2001 16.59 15.3201C16.6966 15.3067 16.8033 15.3067 16.8833 15.3201C16.91 15.3201 16.9233 15.3201 16.95 15.3201C16.9633 15.3201 16.9633 15.3201 16.9766 15.3201C20.39 15.2001 23.07 12.4267 23.0833 9.00008C23.0833 5.50675 20.2433 2.66675 16.75 2.66675Z" fill="#147677"/>
<path d="M23.5233 18.8666C19.8033 16.3866 13.7366 16.3866 9.98995 18.8666C8.29661 19.9999 7.36328 21.5333 7.36328 23.1733C7.36328 24.8133 8.29661 26.3333 9.97661 27.4533C11.8433 28.7066 14.2966 29.3333 16.7499 29.3333C19.2033 29.3333 21.6566 28.7066 23.5233 27.4533C25.2033 26.3199 26.1366 24.7999 26.1366 23.1466C26.1233 21.5066 25.2033 19.9866 23.5233 18.8666Z" fill="#147677"/>
</svg>
