<svg width="18" height="18" viewBox="0 0 18 18" fill="none" xmlns="http://www.w3.org/2000/svg">
<path fill-rule="evenodd" clip-rule="evenodd" d="M9.00004 6.08313C7.38921 6.08313 6.08337 7.38897 6.08337 8.9998C6.08337 10.6106 7.38921 11.9165 9.00004 11.9165C10.6109 11.9165 11.9167 10.6106 11.9167 8.9998C11.9167 7.38897 10.6109 6.08313 9.00004 6.08313ZM7.75004 8.9998C7.75004 8.30944 8.30968 7.7498 9.00004 7.7498C9.6904 7.7498 10.25 8.30944 10.25 8.9998C10.25 9.69015 9.6904 10.2498 9.00004 10.2498C8.30968 10.2498 7.75004 9.69015 7.75004 8.9998Z" fill="#147677"/>
<path fill-rule="evenodd" clip-rule="evenodd" d="M11.5419 2.86317L9.00005 0.321289L6.45817 2.86317H2.86341V6.45793L0.321533 8.9998L2.86341 11.5417V15.1364H6.45817L9.00005 17.6783L11.5419 15.1364H15.1367V11.5417L17.6786 8.9998L15.1367 6.45792V2.86317H11.5419ZM7.14853 4.52983L9.00005 2.67831L10.8516 4.52983H13.47V7.14828L15.3215 8.9998L13.47 10.8513V13.4698H10.8516L9.00005 15.3213L7.14852 13.4698H4.53007V10.8513L2.67856 8.9998L4.53007 7.14828V4.52983H7.14853Z" fill="#147677"/>
</svg>
