<svg width="33" height="32" viewBox="0 0 33 32" fill="none" xmlns="http://www.w3.org/2000/svg">
<path opacity="0.4" d="M21.8366 2.66675H10.6766C5.82328 2.66675 2.92993 5.56008 2.92993 10.4134V21.5734C2.92993 26.4268 5.82328 29.3201 10.6766 29.3201H21.8366C26.6899 29.3201 29.5833 26.4268 29.5833 21.5734V10.4134C29.5833 5.56008 26.6899 2.66675 21.8366 2.66675Z" fill="#147677"/>
<path fill-rule="evenodd" clip-rule="evenodd" d="M15.5429 7.97282C15.9334 7.5823 16.5666 7.5823 16.9571 7.97282L20.9571 11.9728C21.3476 12.3633 21.3476 12.9965 20.9571 13.387C20.5666 13.7776 19.9334 13.7776 19.5429 13.387L16.25 10.0941L12.9571 13.387C12.5666 13.7776 11.9334 13.7776 11.5429 13.387C11.1524 12.9965 11.1524 12.3633 11.5429 11.9728L15.5429 7.97282Z" fill="#147677"/>
<path fill-rule="evenodd" clip-rule="evenodd" d="M16.25 7.67993C16.8023 7.67993 17.25 8.12765 17.25 8.67993V19.3466C17.25 19.8989 16.8023 20.3466 16.25 20.3466C15.6977 20.3466 15.25 19.8989 15.25 19.3466V8.67993C15.25 8.12765 15.6977 7.67993 16.25 7.67993Z" fill="#147677"/>
<path fill-rule="evenodd" clip-rule="evenodd" d="M7.30159 21.6963C7.47664 21.1724 8.04318 20.8897 8.56699 21.0648C13.5479 22.7294 18.9521 22.7294 23.9331 21.0648C24.4569 20.8897 25.0234 21.1724 25.1985 21.6963C25.3735 22.2201 25.0908 22.7866 24.567 22.9617C19.1746 24.7637 13.3254 24.7637 7.93307 22.9617C7.40926 22.7866 7.12654 22.2201 7.30159 21.6963Z" fill="#147677"/>
</svg>
