<svg width="166" height="40" viewBox="0 0 166 40" fill="none" xmlns="http://www.w3.org/2000/svg">
<path fill-rule="evenodd" clip-rule="evenodd" d="M16.5 4H0.5V4.61968L15.8802 19.9999L0.5 35.3802V36H16.5C25.3366 36 32.5 28.8366 32.5 20C32.5 11.1634 25.3366 4 16.5 4Z" fill="#147677"/>
<path d="M55.508 32H47.092V8.608H55.284C62.196 8.608 66.964 13.376 66.964 20.352C66.964 27.232 62.292 32 55.508 32ZM54.9 12.384H51.188V28.224H55.124C59.796 28.224 62.644 25.216 62.644 20.352C62.644 15.392 59.732 12.384 54.9 12.384ZM80.6675 32.384C73.8515 32.384 69.4355 27.648 69.4355 20.32C69.4355 13.056 74.0115 8.224 80.8595 8.224C86.3955 8.224 90.5235 11.456 91.3235 16.48H87.0035C86.2035 13.76 83.8675 12.16 80.7635 12.16C76.4435 12.16 73.7235 15.296 73.7235 20.288C73.7235 25.248 76.4755 28.448 80.7635 28.448C83.9315 28.448 86.3635 26.784 87.1315 24.192H91.3875C90.4915 29.12 86.2035 32.384 80.6675 32.384Z" fill="black"/>
<path d="M118.214 32H103.686V8.608H118.214V12.384H107.782V18.4H117.126V22.016H107.782V28.224H118.214V32ZM126.751 32H122.655V8.608H126.751V18.272H137.119V8.608H141.215V32H137.119V22.08H126.751V32ZM150.501 32H146.405V8.608H155.333C160.645 8.608 163.749 11.296 163.749 15.904C163.749 19.04 162.277 21.28 159.525 22.4L163.973 32H159.493L155.525 23.264H150.501V32ZM150.501 12.256V19.648H155.333C157.925 19.648 159.461 18.272 159.461 15.904C159.461 13.568 157.925 12.256 155.333 12.256H150.501Z" fill="#147677"/>
</svg>
